<?xml version="1.0" encoding="UTF-8"?>
<svg width="1200pt" height="1200pt" version="1.1" viewBox="0 0 1200 1200" xmlns="http://www.w3.org/2000/svg">
 <path d="m348.77 412.2 53.375-20.594c30.074 46.391 82.203 77.148 141.6 77.148s111.53-30.758 141.6-77.148l53.375 20.594c13.141 5.0703 27.125-4.875 26.77-18.953-1.957-77.32-25.676-281.63-221.74-281.63s-219.79 204.31-221.75 281.63c-0.35547 14.078 13.633 24.02 26.77 18.949zm47.711-140.32h81.785c5.1992 0 10.188-2.0586 13.879-5.7227l23.383-23.234c7.7109-7.6641 20.18-7.625 27.844 0.085937l22.914 23.059c3.6953 3.7227 8.7227 5.8125 13.965 5.8125h110.76c1.7383 9.1211 2.7344 18.504 2.7344 28.125 0 82.711-67.289 150-150 150s-150-67.289-150-150c0-9.6211 0.99609-19.004 2.7344-28.125z"/>
 <path d="m868.57 338.25c7.4648 2.3242 12.684 9.0195 12.684 16.836v7.7227c0 9.7539 7.9531 17.641 17.711 17.555l1.207-0.011719c10.289-0.089844 18.582-8.4531 18.582-19.484v-5.707c0-7.668 5.1797-14.172 12.508-16.434 30.43-9.4023 52.211-33.582 52.211-67.578 0-78.723-114.83-63.719-114.83-108.36 0-15.336 12.945-25.555 30.008-25.555 11.027 0 21.391 4.5664 29.406 12.984 6.2148 6.5273 15.996 8.0977 24.199 3.0508 0 0 1.6133-0.99219 3.9258-2.4141 9.2539-5.6914 11.402-18.574 4.0273-26.551-8.4922-9.1797-18.52-15.73-29.523-19.809-6.4844-2.4062-11.93-9.625-11.93-16.539v-5.4258c0-9.6953-7.8594-17.555-17.555-17.555h-2.3945c-9.6914 0-17.551 7.8594-17.551 18.293v4.6133c0 7.5664-4.9375 14.031-12.047 16.621-25.203 9.1797-43.141 29.875-43.141 60.32 0 77.352 114.83 60.996 114.83 110.07 0 17.043-13.652 30.32-39.207 30.32-19.816 0-36.887-7.9922-44.945-25.789-3.9727-8.7695-13.945-14.418-23.77-11.965l-4.0977 1.0234c-10.938 2.7305-17.422 14.652-12.844 24.957 10.102 22.746 29.766 37.719 52.535 44.812z"/>
 <path d="m1104.1 312.68h-0.09375c-11.066 0-21.195 6.2422-26.164 16.137l-6.2656 12.469c-5.125 10.199-14.613 17.508-25.785 19.859l-19.656 4.1367c-22.695 4.7773-41.902 19.785-52.027 40.652l-47.609 97.461c-28.598-26.793-66.789-42.473-106.8-42.473-41.672 0-80.844 16.227-110.32 45.695l-13.812 13.812c-19.191-9.0078-40.562-14.184-63.223-14.184h-140.4c-27.355 0-53.387 5.75-77.098 15.93l-15.555-15.559c-29.473-29.465-68.645-45.695-110.32-45.695-54.684 0-106.04 29.188-134.03 76.172-31.289 52.516-42.184 114.49-30.676 174.52 21.336 111.4 4.6836 228.38-46.898 329.4l-16.598 32.5c-4.3047 8.4219-4.1094 18.367 0.51172 26.602 4.6133 8.2188 12.988 13.547 22.391 14.254 5.625 0.42578 11.816 0.6875 18.516 0.6875 43.312 0 107.96-10.996 178.08-60.879l-1.4414 32.375c-0.47656 10.672 8.0469 19.586 18.73 19.586h77.488v-255.47c-9.6133-10.648-39.816-48.746-39.816-106.93 0-5.1758 4.1992-9.375 9.375-9.375 5.1758 0 9.375 4.1992 9.375 9.375 0 59.52 36.621 96.125 36.988 96.488 1.7969 1.7617 2.8281 4.1914 2.8281 6.7109v259.2h355.75c10.133 0 18.43-8.0469 18.742-18.172l2.5586-83.258c91.309 92.477 180.64 110.35 235.62 110.35 6.6953 0 12.895-0.26172 18.516-0.6875 9.4023-0.70312 17.77-6.0352 22.383-14.25 4.625-8.2344 4.8164-18.18 0.51562-26.602l-16.598-32.504c-51.582-101.02-68.234-218-46.898-329.4 0.50391-2.6328 0.72656-5.2852 1.1484-7.9258l98.785-242.38 46.52-107.64c8.4258-19.312-5.6836-40.93-26.746-40.996zm-807.69 379.01-15.062 338.36c-81 62.52-155.02 68.754-196.27 65.641-3.1758-0.23828-5.8906-1.9688-7.4492-4.7383-1.5664-2.793-1.625-6.0273-0.16406-8.8945l16.598-32.504c53.473-104.71 70.734-225.98 48.609-341.45-10.637-55.516-0.5625-112.84 28.363-161.4 24.629-41.336 69.812-67.016 117.93-67.016 36.664 0 71.133 14.277 97.059 40.199l11.051 11.055c-57.129 31.727-96.977 91.121-100.66 160.75zm434.46-148.14c-5.6992-5.0234-11.809-9.5547-18.23-13.676l10-10c25.93-25.922 60.398-40.199 97.059-40.199 37.172 0 72.551 15.379 98.098 41.414l-49.785 101.15c-5.2578 10.68-19.012 13.82-28.383 6.4805zm283.72 506 16.598 32.504c1.4609 2.8594 1.4023 6.1055-0.16797 8.8945-1.5508 2.7695-4.2656 4.5-7.4414 4.7383-50.496 3.7656-150.36-6.4062-251.92-117.17l3.4023-110.61 0.48438 3.3008 2.2031-64.586c0.44141-12.914 12.996-21.91 25.367-18.176l49.988 15.09c40.281 12.16 82.832-4.0977 105.25-38.008-7.7227 97.543 11.57 196.55 56.238 284.02zm99.066-703.37-41.145 94.328-94.387 0.089844 12.844-26.473c7.5391-15.535 22.125-26.934 39.023-30.488l19.656-4.1367c16.848-3.5469 30.945-14.402 38.676-29.789l6.2656-12.469c1.7969-3.5781 5.4062-5.8047 9.4102-5.8047l0.03125-0.16797v0.16797c5.1289 0.015625 7.8555 3.3438 8.7891 4.7773 0.9375 1.4297 2.8867 5.2656 0.83594 9.9648z"/>
</svg>
