<?xml version="1.0" encoding="utf-8"?>
<!-- Generator: Adobe Illustrator 26.0.2, SVG Export Plug-In . SVG Version: 6.00 Build 0)  -->
<svg version="1.1" id="Ebene_1" xmlns="http://www.w3.org/2000/svg" xmlns:xlink="http://www.w3.org/1999/xlink" x="0px" y="0px"
	 viewBox="0 0 165.8 196.7" style="enable-background:new 0 0 165.8 196.7;" xml:space="preserve">
<style type="text/css">
	.st0{fill:none;stroke:#000000;stroke-width:3.8441;stroke-linecap:round;stroke-linejoin:round;stroke-miterlimit:10;}
	.st1{fill:none;stroke:#FFFFFF;stroke-width:115.3238;stroke-linecap:round;stroke-linejoin:round;stroke-miterlimit:10;}
	.st2{stroke:#000000;stroke-miterlimit:10;}
	.st3{stroke:#000000;stroke-width:38.4413;stroke-linecap:round;stroke-linejoin:round;stroke-miterlimit:10;}
	.st4{fill:none;stroke:#FF4D4D;stroke-width:165.2974;}
	.st5{stroke:#000000;stroke-width:11.5324;stroke-linecap:round;stroke-linejoin:round;stroke-miterlimit:10;}
	.st6{fill:none;stroke:#000000;stroke-width:7.6883;stroke-linecap:round;stroke-linejoin:round;stroke-miterlimit:10;}
	.st7{opacity:0;fill:#FFFFFF;}
	.st8{fill:#FF4D4D;}
	.st9{fill:none;stroke:#000000;stroke-width:15.3765;stroke-linecap:round;stroke-linejoin:round;stroke-miterlimit:10;}
</style>
<g>
	<line class="st0" x1="120.6" y1="169.8" x2="130.8" y2="178.3"/>
	<line class="st0" x1="106.7" y1="179.3" x2="113.5" y2="188.3"/>
	<line class="st0" x1="92.8" y1="185.2" x2="96.2" y2="194.8"/>
	<line class="st1" x1="82.9" y1="127.5" x2="82.9" y2="98.6"/>
	<line class="st0" x1="79" y1="183.9" x2="78.8" y2="194.1"/>
	<line class="st0" x1="147.6" y1="107.8" x2="124.8" y2="82.3"/>
	<line class="st0" x1="65.1" y1="178.9" x2="61.5" y2="189.7"/>
	<path class="st0" d="M34.3,109.5c-3.2-2.8-5.6,1.4-5.6,9.5c0,8.1,2.5,16.6,5.6,19.4"/>
	<path class="st2" d="M55.7,40.6c0.5-13.9,6.7-20.3,14.2-14.8c7.5,5.5,12.9,20.6,12.3,34.4L55.7,40.6z"/>
	<path class="st3" d="M55.7,40.6c0.5-13.9,6.7-20.3,14.2-14.8c7.5,5.5,12.9,20.6,12.3,34.4L55.7,40.6z"/>
	<path class="st2" d="M83.5,36c0.5-13.9,6.7-20.3,14.2-14.8c7.5,5.5,12.9,20.6,12.3,34.4L83.5,36z"/>
	<path class="st3" d="M83.5,36c0.5-13.9,6.7-20.3,14.2-14.8c7.5,5.5,12.9,20.6,12.3,34.4L83.5,36z"/>
	<line x1="82.9" y1="62.9" x2="82.9" y2="62.2"/>
	<line class="st4" x1="82.9" y1="62.9" x2="82.9" y2="62.2"/>
	<path class="st2" d="M116,81.6C77,88,32.2,84.8,13.5,74.3c-18.6-10.5-2.8-23.7,36.2-30.1c39-6.4,83.8-3.2,102.5,7.3
		C170.9,62,155,75.2,116,81.6"/>
	<path class="st5" d="M116,81.6C77,88,32.2,84.8,13.5,74.3c-18.6-10.5-2.8-23.7,36.2-30.1c39-6.4,83.8-3.2,102.5,7.3
		C170.9,62,155,75.2,116,81.6"/>
	<path class="st0" d="M127.1,146.7c-0.8,10.3-10.6,20.4-22.4,23c-11.8,2.7-20.3-3.3-19.5-13.6"/>
	<line class="st6" x1="130.4" y1="111.3" x2="130.4" y2="118.6"/>
	<path class="st0" d="M133.7,102.9c9.8-1.6,17.3,5,17.3,15.2c0,10.2-7.6,19.3-17.3,20.9c-9.8,1.6-17.3-5-17.3-15.2
		C116.4,113.6,124,104.5,133.7,102.9"/>
	<path class="st7" d="M133.7,104.7c8.8-1.4,15.6,4.5,15.6,13.7c0,9.1-6.8,17.4-15.6,18.8c-8.8,1.4-15.6-4.5-15.6-13.7
		C118.1,114.4,124.9,106.1,133.7,104.7"/>
	<line class="st0" x1="71.3" y1="120.4" x2="27.7" y2="98.2"/>
	<path class="st6" d="M120.6,90.8c8-7.1,18.6-6.7,24.1,0.7"/>
	<polygon class="st8" points="106.1,115.3 116.1,144.1 106.1,140.6 	"/>
	<polygon class="st9" points="106.1,115.3 116.1,144.1 106.1,140.6 	"/>
	<line class="st6" x1="81.8" y1="119.3" x2="81.8" y2="126.6"/>
	<path class="st0" d="M85.2,110.9c9.8-1.6,17.3,5,17.3,15.2c0,10.2-7.6,19.3-17.3,20.9c-9.8,1.6-17.3-5-17.3-15.2
		C67.8,121.6,75.4,112.5,85.2,110.9"/>
	<path class="st7" d="M85.2,112.7c8.8-1.4,15.6,4.5,15.6,13.7c0,9.1-6.8,17.4-15.6,18.8c-8.8,1.4-15.6-4.5-15.6-13.7
		C69.6,122.4,76.4,114.1,85.2,112.7"/>
	<path class="st6" d="M67.3,104.8c5.3-9.4,15.8-13.5,24-9.4"/>
</g>
</svg>
