<svg enable-background="new 0 0 224 616.1" viewBox="0 0 224 616.1" xmlns="http://www.w3.org/2000/svg"><g fill="none"><path d="m112 0h56v56h-56z"/><path d="m112 56h56v56h-56z"/><path d="m112 168h56v56h-56z"/><path d="m112 112h56v56h-56z"/><path d="m112 224h56v56h-56z"/><path d="m56 224h56v56h-56z"/><path d="m112 280.1h56v56h-56z"/><path d="m168 0h56v56h-56z"/><path d="m168 56h56v56h-56z"/><path d="m168 168h56v56h-56z"/><path d="m168 112h56v56h-56z"/><path d="m168 224h56v56h-56z"/><path d="m168 280.1h56v56h-56z"/><path d="m168 336.2h56v56h-56z"/><path d="m168 392.2h56v56h-56z"/><path d="m168 504.2h56v56h-56z"/><path d="m168 448.2h56v56h-56z"/><path d="m168 560.2h56v56h-56z"/><path d="m56 280.1h56v56h-56z"/><path d="m0 336.1h56v56h-56z"/><path d="m0 392.1h56v56h-56z"/><path d="m112 392.1h56v56h-56z"/><path d="m0 448.1h56v56h-56z"/><path d="m0 504.1h56v56h-56z"/><path d="m112 448.1h56v56h-56z"/><path d="m112 504.1h56v56h-56z"/><path d="m112 560.2h56v56h-56z"/><path d="m56 392.1h56v56h-56z"/><path d="m112 336h56v56h-56z"/><path d="m56 336h56v56h-56z"/><path d="m56 448.1h56v56h-56z"/><path d="m56 504.1h56v56h-56z"/><path d="m56 560.2h56v56h-56z"/></g><path d="m21.1 421.7c0-2.5 1.5-4.3 4-5.4v-.1c-2.2-1.1-3.2-2.8-3.2-4.5 0-3.2 2.7-5.4 6.2-5.4 3.9 0 5.9 2.4 5.9 5 0 1.7-.8 3.5-3.3 4.7v.1c2.5 1 4.1 2.8 4.1 5.2 0 3.5-3 5.9-6.9 5.9-4.2-.1-6.8-2.6-6.8-5.5zm10.9-.1c0-2.4-1.7-3.6-4.4-4.4-2.4.7-3.6 2.2-3.6 4.2-.1 2 1.5 3.8 4 3.8 2.4 0 4-1.6 4-3.6zm-7.5-10.1c0 2 1.5 3.1 3.8 3.7 1.7-.6 3.1-1.8 3.1-3.7 0-1.6-1-3.3-3.4-3.3-2.3.1-3.5 1.6-3.5 3.3z"/><path d="m21.1 421.7c0-2.5 1.5-4.3 4-5.4v-.1c-2.2-1.1-3.2-2.8-3.2-4.5 0-3.2 2.7-5.4 6.2-5.4 3.9 0 5.9 2.4 5.9 5 0 1.7-.8 3.5-3.3 4.7v.1c2.5 1 4.1 2.8 4.1 5.2 0 3.5-3 5.9-6.9 5.9-4.2-.1-6.8-2.6-6.8-5.5zm10.9-.1c0-2.4-1.7-3.6-4.4-4.4-2.4.7-3.6 2.2-3.6 4.2-.1 2 1.5 3.8 4 3.8 2.4 0 4-1.6 4-3.6zm-7.5-10.1c0 2 1.5 3.1 3.8 3.7 1.7-.6 3.1-1.8 3.1-3.7 0-1.6-1-3.3-3.4-3.3-2.3.1-3.5 1.6-3.5 3.3z"/><path d="m23 479.7c.6.1 1.3 0 2.2-.1 1.6-.2 3.1-.9 4.2-2 1.3-1.2 2.3-3 2.7-5.4h-.1c-1.1 1.4-2.7 2.2-4.7 2.2-3.6 0-6-2.7-6-6.2 0-3.8 2.8-7.2 6.9-7.2s6.7 3.3 6.7 8.5c0 4.4-1.5 7.5-3.5 9.5-1.6 1.5-3.7 2.4-5.9 2.7-1 .2-1.9.2-2.5.2zm1-11.6c0 2.5 1.5 4.3 3.9 4.3 1.8 0 3.3-.9 4-2.1.2-.2.2-.6.2-1 0-3.4-1.3-6.1-4.1-6.1-2.4 0-4 2.1-4 4.9z"/><path d="m23 479.7c.6.1 1.3 0 2.2-.1 1.6-.2 3.1-.9 4.2-2 1.3-1.2 2.3-3 2.7-5.4h-.1c-1.1 1.4-2.7 2.2-4.7 2.2-3.6 0-6-2.7-6-6.2 0-3.8 2.8-7.2 6.9-7.2s6.7 3.3 6.7 8.5c0 4.4-1.5 7.5-3.5 9.5-1.6 1.5-3.7 2.4-5.9 2.7-1 .2-1.9.2-2.5.2zm1-11.6c0 2.5 1.5 4.3 3.9 4.3 1.8 0 3.3-.9 4-2.1.2-.2.2-.6.2-1 0-3.4-1.3-6.1-4.1-6.1-2.4 0-4 2.1-4 4.9z"/><path d="m74.1 76.4-3.6 1.9-.5-2.1 4.4-2.4h2.3v20.2h-2.6z"/><path d="m84.8 90.9c.8.5 2.6 1.3 4.5 1.3 3.5 0 4.6-2.2 4.6-3.9 0-2.8-2.6-4-5.2-4h-1.5v-2h1.5c2 0 4.5-1 4.5-3.4 0-1.6-1-3-3.5-3-1.6 0-3.2.7-4 1.3l-.7-2c1.1-.8 3.1-1.6 5.3-1.6 4 0 5.8 2.4 5.8 4.8 0 2.1-1.2 3.8-3.7 4.7 2.5.5 4.5 2.4 4.5 5.2 0 3.2-2.5 6-7.3 6-2.3 0-4.2-.7-5.2-1.4z"/><path d="m74.1 76.4-3.6 1.9-.5-2.1 4.4-2.4h2.3v20.2h-2.6z"/><path d="m84.8 90.9c.8.5 2.6 1.3 4.5 1.3 3.5 0 4.6-2.2 4.6-3.9 0-2.8-2.6-4-5.2-4h-1.5v-2h1.5c2 0 4.5-1 4.5-3.4 0-1.6-1-3-3.5-3-1.6 0-3.2.7-4 1.3l-.7-2c1.1-.8 3.1-1.6 5.3-1.6 4 0 5.8 2.4 5.8 4.8 0 2.1-1.2 3.8-3.7 4.7 2.5.5 4.5 2.4 4.5 5.2 0 3.2-2.5 6-7.3 6-2.3 0-4.2-.7-5.2-1.4z"/><path d="m74.9 188.4-3.6 1.9-.5-2.1 4.4-2.4h2.3v20.2h-2.6z"/><path d="m96.9 188.1h-7.7l-.8 5.2c.5-.1.9-.1 1.6-.1 1.5 0 3.1.3 4.3 1.1 1.6.9 2.9 2.6 2.9 5.2 0 3.9-3.1 6.9-7.5 6.9-2.2 0-4.1-.6-5-1.2l.7-2.1c.8.5 2.5 1.1 4.3 1.1 2.6 0 4.8-1.7 4.8-4.4 0-2.6-1.8-4.5-5.8-4.5-1.1 0-2 .1-2.8.2l1.3-9.7h9.6z"/><path d="m74.9 188.4-3.6 1.9-.5-2.1 4.4-2.4h2.3v20.2h-2.6z"/><path d="m96.9 188.1h-7.7l-.8 5.2c.5-.1.9-.1 1.6-.1 1.5 0 3.1.3 4.3 1.1 1.6.9 2.9 2.6 2.9 5.2 0 3.9-3.1 6.9-7.5 6.9-2.2 0-4.1-.6-5-1.2l.7-2.1c.8.5 2.5 1.1 4.3 1.1 2.6 0 4.8-1.7 4.8-4.4 0-2.6-1.8-4.5-5.8-4.5-1.1 0-2 .1-2.8.2l1.3-9.7h9.6z"/><path d="m73.7 244.4-3.6 1.9-.5-2.1 4.4-2.4h2.3v20.2h-2.6z"/><path d="m95.2 243.8c-.6 0-1.3 0-2 .1-4.3.7-6.5 3.8-7 7.2h.1c1-1.3 2.6-2.3 4.9-2.3 3.6 0 6.1 2.6 6.1 6.5 0 3.7-2.5 7.1-6.7 7.1-4.3 0-7.1-3.3-7.1-8.6 0-4 1.4-7.1 3.4-9.1 1.7-1.6 3.9-2.7 6.4-3 .8-.1 1.5-.2 2-.2v2.3zm-.8 11.7c0-2.9-1.6-4.6-4.2-4.6-1.6 0-3.2 1-3.9 2.5-.2.3-.3.7-.3 1.2.1 3.3 1.6 5.8 4.4 5.8 2.4-.1 4-2.1 4-4.9z"/><path d="m73.7 244.4-3.6 1.9-.5-2.1 4.4-2.4h2.3v20.2h-2.6z"/><path d="m95.2 243.8c-.6 0-1.3 0-2 .1-4.3.7-6.5 3.8-7 7.2h.1c1-1.3 2.6-2.3 4.9-2.3 3.6 0 6.1 2.6 6.1 6.5 0 3.7-2.5 7.1-6.7 7.1-4.3 0-7.1-3.3-7.1-8.6 0-4 1.4-7.1 3.4-9.1 1.7-1.6 3.9-2.7 6.4-3 .8-.1 1.5-.2 2-.2v2.3zm-.8 11.7c0-2.9-1.6-4.6-4.2-4.6-1.6 0-3.2 1-3.9 2.5-.2.3-.3.7-.3 1.2.1 3.3 1.6 5.8 4.4 5.8 2.4-.1 4-2.1 4-4.9z"/><path d="m19.4 516.1-3.6 1.9-.5-2.1 4.4-2.4h2.3v20.2h-2.6z"/><path d="m42.7 523.4c0 6.9-2.5 10.6-7 10.6-3.9 0-6.6-3.7-6.7-10.4 0-6.8 2.9-10.5 7-10.5 4.3.1 6.7 3.9 6.7 10.3zm-10.9.3c0 5.2 1.6 8.2 4.1 8.2 2.8 0 4.1-3.3 4.1-8.4 0-5-1.3-8.2-4.1-8.2-2.4 0-4.1 2.9-4.1 8.4z"/><path d="m19.4 516.1-3.6 1.9-.5-2.1 4.4-2.4h2.3v20.2h-2.6z"/><path d="m42.7 523.4c0 6.9-2.5 10.6-7 10.6-3.9 0-6.6-3.7-6.7-10.4 0-6.8 2.9-10.5 7-10.5 4.3.1 6.7 3.9 6.7 10.3zm-10.9.3c0 5.2 1.6 8.2 4.1 8.2 2.8 0 4.1-3.3 4.1-8.4 0-5-1.3-8.2-4.1-8.2-2.4 0-4.1 2.9-4.1 8.4z"/><path d="m19.4 574.6-3.6 1.9-.5-2.1 4.4-2.4h2.3v20.2h-2.6z"/><path d="m35.3 574.6-3.6 1.9-.5-2.1 4.4-2.4h2.3v20.2h-2.6z"/><path d="m19.4 574.6-3.6 1.9-.5-2.1 4.4-2.4h2.3v20.2h-2.6z"/><path d="m35.3 574.6-3.6 1.9-.5-2.1 4.4-2.4h2.3v20.2h-2.6z"/><path d="m.3 28c0-3.2.1-6.5 0-9.7-.1-3.6 1.5-6.1 4.4-7.8 4.4-2.7 10.6-2.1 14.3 1.5 1.2 1.2 2 2.6 2.3 4.3.1.7 0 1.2-.9 1.1-1.8 0-3.6 0-5.4 0-.5 0-.9-.1-1.1-.7-.6-1.5-2.1-2.2-3.8-1.8-1.5.3-2.4 1.4-2.4 3v20.4c0 1.8 1.4 3.1 3.2 3.1s3.1-1.2 3.1-3.1c0-4.3 0-8.5 0-12.8 0-1 .3-1.3 1.3-1.3 1.7.1 3.3 0 5 0 .7 0 1 .2 1 1 0 4.5.1 8.9 0 13.4-.1 3.6-2.3 5.9-5.4 7.3-4.6 2-8.9 1.5-12.8-1.7-1.8-1.5-2.8-3.5-2.8-6 .1-3.3 0-6.8 0-10.2z" fill="#cd2d27"/><path d="m59.5 27.2c0-3.6 0-7.3 0-10.9 0-.9.3-1.3 1.2-1.3 1.5.1 3 0 4.5 0 .8 0 1.2.3 1.1 1.1v7.2c0 .9.2 1.3 1.2 1.2 5.7-.8 10.6 3.7 10.5 9.5v3.9c-.1 5.5-4.5 9.4-9.5 9.3-4.8 0-8.9-4.2-9-9 0-.1 0-.1 0-.2 0-3.6 0-7.2 0-10.8zm6.9 8.5v3.2c0 1.4 1.1 2.5 2.3 2.5s2.4-1 2.5-2.4c.1-2.2.1-4.4 0-6.6 0-1.4-1.1-2.4-2.5-2.3-1.3 0-2.3 1-2.3 2.5-.1 1 0 2.1 0 3.1z" fill="#cd2d27"/><path d="m49.3 32.2c0-2.2 0-4.5 0-6.7 0-.8.2-1.1 1.1-1.1h4.8c.7 0 1 .2 1 .9 0 4.4.1 8.9 0 13.3-.2 6.5-8 10.7-13.7 7.3-3.1-1.8-4.7-4.6-4.7-8.2 0-4 0-8 0-12.1 0-.9.3-1.3 1.2-1.2 1.5.1 2.9.1 4.4 0 1-.1 1.2.3 1.2 1.2v12.6c0 .5.1 1.1.3 1.6.4 1.2 1.5 1.8 2.5 1.6 1.1-.2 2-1.2 2-2.4-.1-2.2-.1-4.5-.1-6.8z" fill="#cd2d27"/><path d="m95.7 35.9c-.8 0-1.6 0-2.5 0-.7 0-1-.2-1-.9 0-.8 0-1.6 0-2.5-.1-1.6-1-2.5-2.4-2.5s-2.3 1-2.3 2.5v5.6c0 1.6.9 2.5 2.5 2.5h4.2c.6 0 .9.2.9.9v4c0 .6-.3.8-.9.8-1.7 0-3.5.1-5.2 0-4.2-.2-7.7-3.5-8.3-8-.3-2.2-.2-4.6.2-6.8.8-4.7 5.4-7.8 10.1-7.2s8.1 4.5 8.1 9.3c0 2.2 0 2.2-2.2 2.2-.3.1-.8.1-1.2.1z" fill="#cd2d27"/><path d="m35 24.6c-.1.5-.1 1.1-.3 1.7-.2.8-.4 1.7-.6 2.5-.2.9-.2 1.7-1.5 2-1.1.2-1.4 1.3-1.4 2.4v12c0 1.4 0 1.4-1.5 1.4s-2.9 0-4.4 0c-.7 0-1-.2-1-1 0-4.1 0-8.2 0-12.4.3-5.5 5.6-9.8 10.7-8.6z" fill="#cd2d27"/><path d="m112 24.4c-.4 2-.8 3.8-1.3 5.5-.1.2-.3.4-.6.5-1.6.6-2 1.1-2 2.8v11.8c0 1.4 0 1.4-1.4 1.4-1.5 0-3.1 0-4.6 0-.6 0-.9-.2-.9-.8 0-4.4 0-8.7.1-13.1.1-4.1 3.9-8.1 8.6-8.1z" fill="#cd2d27"/><path d="m3.3 84h49.4" fill="none" stroke="#cd2d27" stroke-miterlimit="10" stroke-width="4"/><path d="m29 60.2 23.7 23.7-23.9 23.9" fill="none" stroke="#cd2d27" stroke-miterlimit="10" stroke-width="4"/><path d="m28 352.2v23.6" fill="none" stroke="#cd2d27" stroke-miterlimit="10" stroke-width="3"/><path d="m34.8 368.7-6.8 6.8-6.8-6.9" fill="none" stroke="#cd2d27" stroke-miterlimit="10" stroke-width="3"/><path d="m23.8 139.9c0 5.9-4.8 10.7-10.7 10.7s-10.7-4.8-10.7-10.7" fill="none" stroke="#cd2d27" stroke-miterlimit="10" stroke-width="4"/><path d="m23.8 140.1c0-5.9 4.8-10.7 10.7-10.7s10.7 4.8 10.7 10.7" fill="none" stroke="#cd2d27" stroke-miterlimit="10" stroke-width="4"/><path d="m66.7 139.9c0 5.9-4.8 10.7-10.7 10.7s-10.7-4.8-10.7-10.7" fill="none" stroke="#cd2d27" stroke-miterlimit="10" stroke-width="4"/><path d="m109.6 139.9c0 5.9-4.8 10.7-10.7 10.7s-10.7-4.8-10.7-10.7" fill="none" stroke="#cd2d27" stroke-miterlimit="10" stroke-width="4"/><path d="m66.7 140.1c0-5.9 4.8-10.7 10.7-10.7s10.7 4.8 10.7 10.7" fill="none" stroke="#cd2d27" stroke-miterlimit="10" stroke-width="4"/><path d="m10.8 186.1h36.1" fill="none" stroke="#cd2d27" stroke-miterlimit="10" stroke-width="1.5"/><path d="m10.7 196.1h36.1" fill="none" stroke="#cd2d27" stroke-miterlimit="10" stroke-width="1.5"/><path d="m10.7 206h36.1" fill="none" stroke="#cd2d27" stroke-miterlimit="10" stroke-width="1.5"/><path d="m16 264.8 25.5-25.6" fill="none"/><path d="m16 264.8 25.5-25.6" fill="none" stroke="#cd2d27" stroke-miterlimit="10" stroke-width="3"/><path d="m16 239.2 25.5 25.6" fill="none"/><path d="m16 239.2 25.5 25.6" fill="none" stroke="#cd2d27" stroke-miterlimit="10" stroke-width="3"/><circle cx="28" cy="308" fill="#dd0817" r="21.2"/></svg>