<?xml version="1.0" encoding="UTF-8"?>
<svg width="1200pt" height="1200pt" version="1.1" viewBox="0 0 1200 1200" xmlns="http://www.w3.org/2000/svg">
 <path d="m556.89 391.57c16.242 76.234 83.906 133.43 164.98 133.43 93.199 0 168.75-75.551 168.75-168.75s-75.551-168.75-168.75-168.75c-41.805 0-79.848 15.438-109.32 40.629l0.027344-0.089844s-0.8125 0.75781-3.5781 3.0195c-4.1953 3.4336-12.926 10.367-30.465 23.652-23.902 18.098-70.871 14.801-97.656 11.031-11.59-1.6328-21.922 7.2188-22.285 18.918-1.1172 36.098 9.082 103.32 98.289 106.91zm164.98 114.68c-70.559 0-129.74-49.035-145.65-114.77 66.219-3.6523 121.26-48.918 139.3-110.21 17.828 43.48 58.195 94.234 147.7 124.72-20.586 58.301-76.09 100.26-141.35 100.26z"/>
 <path d="m1096.8 193.65c-0.015626-21.93-12.773-41.852-32.684-51.039l-34.418-15.883c-6.2031-2.8633-10.359-8.8711-10.848-15.688l-2.8164-39.355c-1.0039-13.98-12.637-24.812-26.656-24.812-13.176 0-24.387 9.6055-26.406 22.629l-10.734 69.211c-3.0625 19.758-1.8789 39.945 3.4766 59.211l3.6602 13.168c2.8594 10.293 4.5391 20.879 5.0039 31.551l1.2695 29.23h-0.058594v158.8c0.61719 26.574-7.4766 52.52-22.59 74.379-24.426 35.336-64.641 56.426-107.59 57.445h-171.69c-39.863 0-76.164 14.93-103.91 39.348v-0.29688l-114.55 100.15c-10.172 8.8945-26.129 4.4336-30.215-8.4453l-47.43-149.51h-0.13672l-17.25-54.883c-9.7617-31.059-30.672-56.246-57.449-71.895l118.48-276.02c0.18359-0.43359 0.16016-0.88281 0.27734-1.3242 0.1875-0.70312 0.42188-1.4062 0.44141-2.1133 0.015625-0.59375-0.15625-1.1758-0.25-1.7656-0.097656-0.59766-0.125-1.207-0.33594-1.7734-0.24609-0.65625-0.69141-1.2383-1.0898-1.8398-0.25391-0.38281-0.37891-0.82031-0.69531-1.1719-0.027344-0.027344-0.14844-0.15625-0.19141-0.20312l-0.015625-0.015625c-2.9531-3.2188-43.703-46.18-113.8-46.18-18.691 0-39.258 8.8594-59.148 17.426-18.801 8.1016-38.242 16.477-54.246 16.477-41.02 0-73.266-23.164-73.586-23.402-2.8555-2.0742-6.6289-2.3945-9.7812-0.78125-3.1406 1.5977-5.1289 4.8203-5.1289 8.3516v156.02c0 2.9844 1.418 5.7891 3.8242 7.5547 1.5 1.1016 37.332 27.031 84.676 27.031 20.141 0 38.754-9.2617 56.758-18.219 16.203-8.0664 31.512-15.684 46.07-15.684 22.148 0 40.07 11.086 47.805 16.77l-56.918 132.59c-14.809-5.9453-30.859-9.2344-47.516-9.2344-13.008 0-22.441 12.391-18.977 24.93l32.98 119.36h-0.14844l76.039 276.59c14.289 51.973 69.359 81.223 120.42 63.961l76.066-25.719c5.9414 35.176 14.91 69.84 26.934 103.56l1.9844 5.5586v147.93c0 10.355 8.3945 18.75 18.75 18.75h375c10.355 0 18.75-8.3945 18.75-18.75v-250.57c2.543-31.844 10.27-63.215 25.055-91.418l98.848-188.54c15.691-29.926 16.723-62.176 16.723-97.156v-216.07h0.011719zm-811.76 46.934c-18.961 0-36.992 8.9727-54.422 17.648-16.801 8.3594-32.672 16.254-48.402 16.254-32.816 0-60.016-14.828-69.75-20.875l-0.003906-134.4c15.02 7.8672 40.133 18.012 69.75 18.012 19.871 0 41.117-9.1523 61.66-18.004 18.145-7.8125 36.906-15.898 51.73-15.898 50.598 0 84.504 25.965 95.883 36.176l-51.078 118.99c-10.957-7.4062-30.781-17.902-55.367-17.902zm-57.371 177.99c0.28125-0.37109 0.57031-0.37109 0.74609-0.37109 14.102 0 27.645 2.7266 40.145 7.6523 5.8594 2.3086 11.496 5.0742 16.828 8.3359 21.867 13.383 38.828 34.422 46.957 60.289l9.5859 30.516h-85.246l-29.176-105.6c-0.046875-0.16797-0.12109-0.44922 0.16016-0.82031zm400.42 209.55c-10.355 0-18.75-8.3945-18.75-18.75s8.3945-18.75 18.75-18.75 18.75 8.3945 18.75 18.75-8.3945 18.75-18.75 18.75zm37.5 28.125c-10.355 0-18.75-8.3945-18.75-18.75s8.3945-18.75 18.75-18.75 18.75 8.3945 18.75 18.75-8.3945 18.75-18.75 18.75zm56.25 9.375c-10.355 0-18.75-8.3945-18.75-18.75s8.3945-18.75 18.75-18.75 18.75 8.3945 18.75 18.75-8.3945 18.75-18.75 18.75zm56.25-9.375c-10.355 0-18.75-8.3945-18.75-18.75s8.3945-18.75 18.75-18.75 18.75 8.3945 18.75 18.75-8.3945 18.75-18.75 18.75zm18.75-46.875c0-5.0078 1.9922-9.5273 5.1875-12.891 3.418-3.5938 8.2148-5.8594 13.562-5.8594 10.355 0 18.75 8.3945 18.75 18.75s-8.3945 18.75-18.75 18.75-18.75-8.3945-18.75-18.75zm192.54-543.75c4.1602 0 7.6562 3.25 7.9531 7.4023l2.8164 39.355c0.97656 13.629 9.2891 25.648 21.695 31.371l34.418 15.883c13.227 6.1016 21.781 19.461 21.789 34.027l0.039062 59.461h-94.488l-0.49219-11.297c-0.52344-12.078-2.4336-24.109-5.6719-35.758l-3.6602-13.164c-4.6719-16.809-5.6836-34.074-3.0117-51.316l10.734-69.211c0.60547-3.9141 3.9219-6.7539 7.8789-6.7539z"/>
</svg>
