<?xml version="1.0" encoding="UTF-8"?><!DOCTYPE svg PUBLIC "-//W3C//DTD SVG 1.1//EN" "http://www.w3.org/Graphics/SVG/1.1/DTD/svg11.dtd"><svg xmlns="http://www.w3.org/2000/svg" style="display:none" xmlns:xlink="http://www.w3.org/1999/xlink"><defs/><symbol id="a" viewBox="0 0 1200 1200">
 <path d="m348.77 412.2 53.375-20.594c30.074 46.391 82.203 77.148 141.6 77.148s111.53-30.758 141.6-77.148l53.375 20.594c13.141 5.0703 27.125-4.875 26.77-18.953-1.957-77.32-25.676-281.63-221.74-281.63s-219.79 204.31-221.75 281.63c-0.35547 14.078 13.633 24.02 26.77 18.949zm47.711-140.32h81.785c5.1992 0 10.188-2.0586 13.879-5.7227l23.383-23.234c7.7109-7.6641 20.18-7.625 27.844 0.085937l22.914 23.059c3.6953 3.7227 8.7227 5.8125 13.965 5.8125h110.76c1.7383 9.1211 2.7344 18.504 2.7344 28.125 0 82.711-67.289 150-150 150s-150-67.289-150-150c0-9.6211 0.99609-19.004 2.7344-28.125z"/>
 <path d="m868.57 338.25c7.4648 2.3242 12.684 9.0195 12.684 16.836v7.7227c0 9.7539 7.9531 17.641 17.711 17.555l1.207-0.011719c10.289-0.089844 18.582-8.4531 18.582-19.484v-5.707c0-7.668 5.1797-14.172 12.508-16.434 30.43-9.4023 52.211-33.582 52.211-67.578 0-78.723-114.83-63.719-114.83-108.36 0-15.336 12.945-25.555 30.008-25.555 11.027 0 21.391 4.5664 29.406 12.984 6.2148 6.5273 15.996 8.0977 24.199 3.0508 0 0 1.6133-0.99219 3.9258-2.4141 9.2539-5.6914 11.402-18.574 4.0273-26.551-8.4922-9.1797-18.52-15.73-29.523-19.809-6.4844-2.4062-11.93-9.625-11.93-16.539v-5.4258c0-9.6953-7.8594-17.555-17.555-17.555h-2.3945c-9.6914 0-17.551 7.8594-17.551 18.293v4.6133c0 7.5664-4.9375 14.031-12.047 16.621-25.203 9.1797-43.141 29.875-43.141 60.32 0 77.352 114.83 60.996 114.83 110.07 0 17.043-13.652 30.32-39.207 30.32-19.816 0-36.887-7.9922-44.945-25.789-3.9727-8.7695-13.945-14.418-23.77-11.965l-4.0977 1.0234c-10.938 2.7305-17.422 14.652-12.844 24.957 10.102 22.746 29.766 37.719 52.535 44.812z"/>
 <path d="m1104.1 312.68h-0.09375c-11.066 0-21.195 6.2422-26.164 16.137l-6.2656 12.469c-5.125 10.199-14.613 17.508-25.785 19.859l-19.656 4.1367c-22.695 4.7773-41.902 19.785-52.027 40.652l-47.609 97.461c-28.598-26.793-66.789-42.473-106.8-42.473-41.672 0-80.844 16.227-110.32 45.695l-13.812 13.812c-19.191-9.0078-40.562-14.184-63.223-14.184h-140.4c-27.355 0-53.387 5.75-77.098 15.93l-15.555-15.559c-29.473-29.465-68.645-45.695-110.32-45.695-54.684 0-106.04 29.188-134.03 76.172-31.289 52.516-42.184 114.49-30.676 174.52 21.336 111.4 4.6836 228.38-46.898 329.4l-16.598 32.5c-4.3047 8.4219-4.1094 18.367 0.51172 26.602 4.6133 8.2188 12.988 13.547 22.391 14.254 5.625 0.42578 11.816 0.6875 18.516 0.6875 43.312 0 107.96-10.996 178.08-60.879l-1.4414 32.375c-0.47656 10.672 8.0469 19.586 18.73 19.586h77.488v-255.47c-9.6133-10.648-39.816-48.746-39.816-106.93 0-5.1758 4.1992-9.375 9.375-9.375 5.1758 0 9.375 4.1992 9.375 9.375 0 59.52 36.621 96.125 36.988 96.488 1.7969 1.7617 2.8281 4.1914 2.8281 6.7109v259.2h355.75c10.133 0 18.43-8.0469 18.742-18.172l2.5586-83.258c91.309 92.477 180.64 110.35 235.62 110.35 6.6953 0 12.895-0.26172 18.516-0.6875 9.4023-0.70312 17.77-6.0352 22.383-14.25 4.625-8.2344 4.8164-18.18 0.51562-26.602l-16.598-32.504c-51.582-101.02-68.234-218-46.898-329.4 0.50391-2.6328 0.72656-5.2852 1.1484-7.9258l98.785-242.38 46.52-107.64c8.4258-19.312-5.6836-40.93-26.746-40.996zm-807.69 379.01-15.062 338.36c-81 62.52-155.02 68.754-196.27 65.641-3.1758-0.23828-5.8906-1.9688-7.4492-4.7383-1.5664-2.793-1.625-6.0273-0.16406-8.8945l16.598-32.504c53.473-104.71 70.734-225.98 48.609-341.45-10.637-55.516-0.5625-112.84 28.363-161.4 24.629-41.336 69.812-67.016 117.93-67.016 36.664 0 71.133 14.277 97.059 40.199l11.051 11.055c-57.129 31.727-96.977 91.121-100.66 160.75zm434.46-148.14c-5.6992-5.0234-11.809-9.5547-18.23-13.676l10-10c25.93-25.922 60.398-40.199 97.059-40.199 37.172 0 72.551 15.379 98.098 41.414l-49.785 101.15c-5.2578 10.68-19.012 13.82-28.383 6.4805zm283.72 506 16.598 32.504c1.4609 2.8594 1.4023 6.1055-0.16797 8.8945-1.5508 2.7695-4.2656 4.5-7.4414 4.7383-50.496 3.7656-150.36-6.4062-251.92-117.17l3.4023-110.61 0.48438 3.3008 2.2031-64.586c0.44141-12.914 12.996-21.91 25.367-18.176l49.988 15.09c40.281 12.16 82.832-4.0977 105.25-38.008-7.7227 97.543 11.57 196.55 56.238 284.02zm99.066-703.37-41.145 94.328-94.387 0.089844 12.844-26.473c7.5391-15.535 22.125-26.934 39.023-30.488l19.656-4.1367c16.848-3.5469 30.945-14.402 38.676-29.789l6.2656-12.469c1.7969-3.5781 5.4062-5.8047 9.4102-5.8047l0.03125-0.16797v0.16797c5.1289 0.015625 7.8555 3.3438 8.7891 4.7773 0.9375 1.4297 2.8867 5.2656 0.83594 9.9648z"/>
</symbol><symbol id="b" viewBox="0 0 1200 1200">
 <path d="m693.75 975v-18.75h-21.426c-8.082 0-16.113 1.1328-23.879 3.3711l-2.5781 0.74219-25.582 7.375c-4.3867 1.2656-8.9258 1.9062-13.492 1.9062-3.6406 0-7.2852-0.41016-11.172-1.293l-88.824-18.574c-5.043-1.0547-8.7031-5.5586-8.7031-10.711 0-6.0312 4.9102-10.941 10.941-10.941h48.082c17.527 0 35-2.3125 51.934-6.8672 5-1.3477 7.9648-6.4922 6.6211-11.488-1.3477-4.9961-6.4805-7.957-11.488-6.6211-11.242 3.0273-22.75 4.9375-34.344 5.7539v-0.82031c0-5.625 3.7656-10.664 9.1602-12.258l36.488-10.781c6.2734-1.8516 12.695-3.0586 19.18-3.7383 3.7266-0.39063 7.4648-0.65625 11.223-0.65625 5.4297 0 10.906 0.41797 16.273 1.2422l31.586 4.8438v-15.031c0-1.3672 0.35547-2.6289 0.88281-3.8047 1.332-2.9609 4.0977-5.1641 7.5156-5.5195l122.85-12.855v-253.97c-8.3828-1.9727-16.113-6.1133-22.355-12.355l-67.578-67.574h-11.461c-49.41 0-96.82 19.504-131.93 54.27l-110.14 109.07c-16.328 16.168-38.023 25.777-60.969 27l-148.69 7.9336v13.242l-28.746-4.4102c-6.3438-0.97266-12.734-1.457-19.117-1.457-12.059 0-24.086 1.7305-35.715 5.1641l-36.488 10.777c-13.402 3.9609-22.598 16.266-22.598 30.238v1.2969h-42.051c-16.398 0-29.691 13.293-29.691 29.691 0 14.055 9.8555 26.188 23.613 29.062l88.824 18.574c4.9453 1.1289 9.9766 1.6914 15.008 1.6914 6.2969 0 12.59-0.88281 18.688-2.6406l28.16-8.1172c6.0742-1.75 12.367-2.6367 18.688-2.6367h21.426v18.75h164.77c41.348 0 82.188-9.1172 119.61-26.703l61.977-29.121c0 26.906 4.0742 48.738 9.5195 65.91-5.9297 0.86328-11.805 2.1445-17.578 3.8516l-36.488 10.777c-13.402 3.9609-22.598 16.266-22.598 30.238l0.003907 1.2969h-42.051c-16.398 0-29.691 13.293-29.691 29.691 0 14.055 9.8555 26.188 23.613 29.062l88.824 18.574c4.9453 1.1289 9.9766 1.6914 15.008 1.6914 6.2969 0 12.59-0.88281 18.688-2.6406l16.16-4.6562-22.859 112.03c-2.3672 11.621 6.5117 22.496 18.375 22.496h187.85v-131.25h-121.88c-5.1758 0-9.375-4.1992-9.375-9.375zm-508.84-145.98c-3.6406 0-7.2852-0.41016-11.172-1.293l-88.824-18.574c-5.043-1.0547-8.7031-5.5586-8.7031-10.711 0.003906-6.0312 4.9141-10.941 10.945-10.941h49.969c17.531 0 35.004-2.3125 51.938-6.8672 5-1.3477 7.9648-6.4922 6.6211-11.488-1.3398-5-6.4727-7.9453-11.488-6.6211-11.852 3.1914-24 5.1367-36.234 5.8672v-0.9375c0-5.625 3.7656-10.664 9.1602-12.258l36.488-10.781c9.875-2.918 20.105-4.3984 30.406-4.3984 5.4297 0 10.902 0.41797 16.273 1.2422l31.582 4.8516v69.516h-21.426c-8.082 0-16.113 1.1328-23.879 3.3711l-28.16 8.1172c-4.3906 1.2656-8.9297 1.9062-13.496 1.9062z"/>
 <path d="m1074.2 878.52 0.14062-2.8633-77.566 78.207c-19.227 19.391-45.914 30.508-73.219 30.508h-79.812v131.25h227.84c10.988 0 19.621-9.4062 18.68-20.355l-15.363-178.89c-1.082-12.586-1.3125-25.234-0.69531-37.852z"/>
 <path d="m588.89 294.7c22.863 0 44.223-4.4258 63.605-12.461-14.395 11.355-28.703 17.117-37.008 17.117-15.531 0-28.125 12.594-28.125 28.125s12.594 28.125 28.125 28.125c13.004 0 28.473-4.1172 44.273-11.887 0.007812 0.039062 0.019531 0.074218 0.027343 0.11328-17.453 16.789-39.336 26.73-62.465 26.73-15.531 0-28.125 12.594-28.125 28.125s12.594 28.125 28.125 28.125c25.852 0 50.562-7.4805 72.492-20.582-10.418 11.254-22.895 16.953-37.203 22.258-14.566 5.3984-21.996 21.578-16.598 36.145 4.2031 11.344 14.945 18.359 26.375 18.359 3.2461 0 6.5469-0.56641 9.7695-1.7617 25.309-9.3789 47-21.727 64.176-42.84 29.367 24.762 67.246 39.738 108.66 39.738 64.859 0 121.09-36.637 149.34-90.305 3.2266 20.836 5.4961 43.098 5.4961 64.93 0 15.531 12.594 28.125 28.125 28.125s28.125-12.594 28.125-28.125c0-38.984-6.1055-78.496-12.965-110.68 11.176 8.0039 24.426 15.199 40.449 20.664 3.0078 1.0234 6.0703 1.5156 9.082 1.5156 11.699-0.003906 22.629-7.3594 26.613-19.051 5.0117-14.703-2.8398-30.688-17.543-35.699-50.66-17.281-58.258-60.023-58.508-61.508-0.21094-1.4883-0.53516-2.9531-0.98047-4.3906-26.602-86.234-116.46-119.07-147.18-127.95-13.133-22.379-39.133-43.945-87.953-43.945-57.668 0-85.004 30.129-106.96 54.34-19.477 21.477-32.352 35.664-64.648 35.664-15.531 0-28.125 12.594-28.125 28.125s12.594 28.125 28.125 28.125c18.555 0 33.918-3.1875 47.008-8.2734-18.805 18.527-43.957 28.754-73.609 28.754-15.531 0-28.125 12.594-28.125 28.125 0.007813 15.531 12.602 28.125 28.133 28.125zm379.28 59.441c-19.086 60.914-76.043 105.24-143.17 105.24-37.387 0-71.539-13.84-97.832-36.543-12.082-10.434-22.426-22.762-30.691-36.512-2.8164-4.6875-5.3945-9.5195-7.6992-14.52-5.5039-11.957-9.4375-24.742-11.633-38.133-0.49609-3.0234-1.0664-6.0234-1.3789-9.1016-0.5-5-0.76562-10.066-0.76562-15.191 0-5.2344 0.27734-10.402 0.80469-15.5 5.293-0.13672 10.406-0.43359 15.336-0.89844 11.914-1.1172 22.855-3.0977 32.797-5.8945 9.9766-2.8086 18.996-6.3828 27.168-10.578 39.367-20.211 58.895-54.68 68.41-86.387 5 23.379 16.484 49.488 42.457 61.656 15.125 7.0859 26.949 19.551 31.723 35.559 7.8359 26.266 27.16 62.289 74.422 66.582 0.042968 0.003907 0.085937 0.003907 0.12891 0.007813-0.019532 0.074219-0.054688 0.14062-0.078125 0.21484z"/>
 <path d="m262.5 136.04c5.1758 0 9.375-4.1992 9.375-9.375v-28.125c0-5.1758-4.1992-9.375-9.375-9.375s-9.375 4.1992-9.375 9.375v28.125c0 5.1758 4.1992 9.375 9.375 9.375z"/>
 <path d="m324.9 149.98c1.1445 0.45703 2.3242 0.67578 3.4883 0.67578 3.7188 0 7.2383-2.2305 8.707-5.8867l10.473-26.102c1.9258-4.8047-0.40625-10.262-5.2109-12.195-4.8008-1.9336-10.27 0.40234-12.195 5.2109l-10.473 26.102c-1.9258 4.8086 0.41016 10.266 5.2109 12.195z"/>
 <path d="m377.95 181.43c2.7227 0 5.4297-1.1797 7.2812-3.4648l17.734-21.832c3.2656-4.0195 2.6523-9.918-1.3672-13.188-4.0117-3.25-9.9141-2.6602-13.188 1.3672l-17.734 21.832c-3.2656 4.0195-2.6523 9.918 1.3672 13.188 1.7344 1.4102 3.8281 2.0977 5.9062 2.0977z"/>
 <path d="m185.24 144.77c1.4688 3.6641 4.9844 5.8906 8.707 5.8906 1.1562 0 2.3398-0.21875 3.4844-0.67578 4.8047-1.9258 7.1406-7.3867 5.2148-12.191l-10.469-26.102c-1.9219-4.7969-7.375-7.1445-12.191-5.2148-4.8047 1.9258-7.1406 7.3867-5.2148 12.191z"/>
 <path d="m137.11 177.96c1.8555 2.2852 4.5586 3.4648 7.2812 3.4648 2.0781 0 4.1719-0.6875 5.9062-2.0977 4.0195-3.2695 4.6328-9.168 1.3672-13.188l-17.734-21.832c-3.2656-4.0273-9.1836-4.625-13.188-1.3672-4.0195 3.2695-4.6328 9.168-1.3672 13.188z"/>
 <path d="m120.71 379.05 32.441 70.293c7.4805 16.203 13.086 33.289 16.672 50.781l6.6797 32.621c2.4219 11.809 12.922 20.379 24.977 20.379h118.87c12.059 0 22.559-8.5742 24.973-20.379l6.6836-32.621c3.5859-17.492 9.1914-34.574 16.672-50.781l32.438-70.293c0.21094-0.46094 0.38281-0.94141 0.51562-1.4297 8.0508-18.973 12.137-39.027 12.137-59.633 0-42.184-16.809-81.461-47.328-110.59-30.504-29.117-70.625-44.047-112.82-42.109-76.652 3.5625-139.03 63.918-145.11 140.39-1.9805 24.965 1.9688 49.238 11.742 72.156 0.12109 0.41406 0.27734 0.82031 0.45313 1.2148zm124.38 155.32-49.285-220.14 42.352 24.332c7.0156 4.0312 14.895 6.0508 22.773 6.0508 7.8516 0 15.707-2.0039 22.719-6.0195l42.617-24.406-49.285 220.19zm-117.89-227.21c5.2383-65.98 61.148-120.07 127.28-123.15 37.094-1.6836 72.246 11.395 99 36.941 26.777 25.562 41.527 60.023 41.527 97.031 0 18.461-3.7344 36.418-11.105 53.383-0.14844 0.32812-0.26562 0.66406-0.37109 1.0039l-31.891 69.113c-8.0781 17.516-14.141 35.977-18.008 54.871l-6.6875 32.629c-0.63672 3.1211-3.4141 5.3867-6.6016 5.3867h-24.152l53.023-236.84c0.10938-0.48438 0-0.94531 0.03125-1.4219 0.046875-0.67578 0.14453-1.332 0.042969-2.0078-0.10547-0.71094-0.40234-1.3398-0.66406-2-0.16406-0.42187-0.19141-0.87109-0.42187-1.2734-0.035157-0.0625-0.10156-0.09375-0.13672-0.15625-0.375-0.62109-0.91406-1.1016-1.4219-1.6211-0.35156-0.35547-0.62891-0.79297-1.0234-1.082-0.40234-0.29688-0.90625-0.4375-1.3594-0.66797-0.64062-0.32812-1.25-0.69531-1.9453-0.87109-0.074219-0.019532-0.125-0.070313-0.19922-0.089844-0.45703-0.10156-0.89844 0.007812-1.3516-0.023438-0.70313-0.054687-1.3945-0.14844-2.1016-0.039062-0.62109 0.097656-1.1719 0.36719-1.7578 0.58203-0.49609 0.17969-1.0195 0.22656-1.4961 0.49609l-61.07 34.973c-8.2812 4.7422-18.559 4.7383-26.84-0.023437l-60.828-34.945c-0.48828-0.28125-1.0273-0.33203-1.5391-0.51562-0.56641-0.20312-1.0898-0.46875-1.6914-0.56641-0.71875-0.10938-1.418-0.019532-2.1328 0.035156-0.45312 0.03125-0.89453-0.078125-1.3516 0.023438-0.074219 0.015624-0.12891 0.070312-0.20312 0.089843-0.65625 0.16406-1.2344 0.51953-1.8438 0.82031-0.48828 0.24609-1.0312 0.39844-1.4609 0.71875-0.375 0.27734-0.63672 0.69141-0.97266 1.0273-0.52734 0.53516-1.082 1.0312-1.4688 1.6719-0.035156 0.0625-0.097656 0.09375-0.13672 0.15234-0.23438 0.41016-0.26172 0.86328-0.42969 1.2891-0.26172 0.65625-0.55469 1.2812-0.66406 1.9883-0.10547 0.68359-0.003906 1.3516 0.042969 2.0312 0.03125 0.47266-0.078125 0.92969 0.027344 1.4062l53.023 236.84h-24.398c-3.1914 0-5.9688-2.2695-6.6094-5.3906l-6.6797-32.621c-3.8672-18.898-9.9297-37.359-18.008-54.871l-32.004-69.336c-0.085938-0.26562-0.1875-0.52734-0.30078-0.78906-8.8477-20.367-12.438-41.965-10.672-64.203z"/>
 <path d="m196.88 571.88c-2.9023 0-5.6367 1.3398-7.4102 3.6328-1.7773 2.293-2.3906 5.2773-1.668 8.0898l13.445 52c3.1445 12.16 14.113 20.652 26.668 20.652h66.453c12.555 0 23.523-8.4922 26.668-20.648l13.449-52c0.72266-2.8125 0.10938-5.7969-1.668-8.0898-1.7734-2.2969-4.5039-3.6367-7.4062-3.6367zm106 59.027c-1.0039 3.8867-4.5039 6.5977-8.5156 6.5977h-66.453c-4.0117 0-7.5117-2.7109-8.5156-6.5977l-10.41-40.277h104.31z"/>
 <path d="m923.56 965.62c22.344 0 44.18-9.0977 59.906-24.957l90.512-91.258c0.61719-0.625 1.1406-1.3125 1.75-1.9453 33.551-34.781 52.09-80.375 52.09-128.8 0-54.965-24.129-106.77-66.207-142.12l-29.203-24.551-0.007812 0.011718c-25.77-22.242-59.246-35.809-96.004-36.277l-67.469 67.469c-6.9375 6.9453-15.695 11.336-25.18 12.957v251.41l25.148-2.6328c10.359-1.0859 19.223-7.7539 23.137-17.402l40.723-100.44c1.9453-4.7969 7.4062-7.1133 12.207-5.168 0.26172 0.10547 0.42969 0.32031 0.67578 0.44531 4.2812 2.1914 6.332 7.2266 4.4922 11.762l-40.723 100.44c-6.5234 16.09-21.297 27.203-38.562 29.012l-27.098 2.8398-18.75 1.9609-112.5 11.773v85.473z"/>
</symbol><symbol id="c" viewBox="0 0 1200 1200">
 <path d="m556.89 391.57c16.242 76.234 83.906 133.43 164.98 133.43 93.199 0 168.75-75.551 168.75-168.75s-75.551-168.75-168.75-168.75c-41.805 0-79.848 15.438-109.32 40.629l0.027344-0.089844s-0.8125 0.75781-3.5781 3.0195c-4.1953 3.4336-12.926 10.367-30.465 23.652-23.902 18.098-70.871 14.801-97.656 11.031-11.59-1.6328-21.922 7.2188-22.285 18.918-1.1172 36.098 9.082 103.32 98.289 106.91zm164.98 114.68c-70.559 0-129.74-49.035-145.65-114.77 66.219-3.6523 121.26-48.918 139.3-110.21 17.828 43.48 58.195 94.234 147.7 124.72-20.586 58.301-76.09 100.26-141.35 100.26z"/>
 <path d="m1096.8 193.65c-0.015626-21.93-12.773-41.852-32.684-51.039l-34.418-15.883c-6.2031-2.8633-10.359-8.8711-10.848-15.688l-2.8164-39.355c-1.0039-13.98-12.637-24.812-26.656-24.812-13.176 0-24.387 9.6055-26.406 22.629l-10.734 69.211c-3.0625 19.758-1.8789 39.945 3.4766 59.211l3.6602 13.168c2.8594 10.293 4.5391 20.879 5.0039 31.551l1.2695 29.23h-0.058594v158.8c0.61719 26.574-7.4766 52.52-22.59 74.379-24.426 35.336-64.641 56.426-107.59 57.445h-171.69c-39.863 0-76.164 14.93-103.91 39.348v-0.29688l-114.55 100.15c-10.172 8.8945-26.129 4.4336-30.215-8.4453l-47.43-149.51h-0.13672l-17.25-54.883c-9.7617-31.059-30.672-56.246-57.449-71.895l118.48-276.02c0.18359-0.43359 0.16016-0.88281 0.27734-1.3242 0.1875-0.70312 0.42188-1.4062 0.44141-2.1133 0.015625-0.59375-0.15625-1.1758-0.25-1.7656-0.097656-0.59766-0.125-1.207-0.33594-1.7734-0.24609-0.65625-0.69141-1.2383-1.0898-1.8398-0.25391-0.38281-0.37891-0.82031-0.69531-1.1719-0.027344-0.027344-0.14844-0.15625-0.19141-0.20312l-0.015625-0.015625c-2.9531-3.2188-43.703-46.18-113.8-46.18-18.691 0-39.258 8.8594-59.148 17.426-18.801 8.1016-38.242 16.477-54.246 16.477-41.02 0-73.266-23.164-73.586-23.402-2.8555-2.0742-6.6289-2.3945-9.7812-0.78125-3.1406 1.5977-5.1289 4.8203-5.1289 8.3516v156.02c0 2.9844 1.418 5.7891 3.8242 7.5547 1.5 1.1016 37.332 27.031 84.676 27.031 20.141 0 38.754-9.2617 56.758-18.219 16.203-8.0664 31.512-15.684 46.07-15.684 22.148 0 40.07 11.086 47.805 16.77l-56.918 132.59c-14.809-5.9453-30.859-9.2344-47.516-9.2344-13.008 0-22.441 12.391-18.977 24.93l32.98 119.36h-0.14844l76.039 276.59c14.289 51.973 69.359 81.223 120.42 63.961l76.066-25.719c5.9414 35.176 14.91 69.84 26.934 103.56l1.9844 5.5586v147.93c0 10.355 8.3945 18.75 18.75 18.75h375c10.355 0 18.75-8.3945 18.75-18.75v-250.57c2.543-31.844 10.27-63.215 25.055-91.418l98.848-188.54c15.691-29.926 16.723-62.176 16.723-97.156v-216.07h0.011719zm-811.76 46.934c-18.961 0-36.992 8.9727-54.422 17.648-16.801 8.3594-32.672 16.254-48.402 16.254-32.816 0-60.016-14.828-69.75-20.875l-0.003906-134.4c15.02 7.8672 40.133 18.012 69.75 18.012 19.871 0 41.117-9.1523 61.66-18.004 18.145-7.8125 36.906-15.898 51.73-15.898 50.598 0 84.504 25.965 95.883 36.176l-51.078 118.99c-10.957-7.4062-30.781-17.902-55.367-17.902zm-57.371 177.99c0.28125-0.37109 0.57031-0.37109 0.74609-0.37109 14.102 0 27.645 2.7266 40.145 7.6523 5.8594 2.3086 11.496 5.0742 16.828 8.3359 21.867 13.383 38.828 34.422 46.957 60.289l9.5859 30.516h-85.246l-29.176-105.6c-0.046875-0.16797-0.12109-0.44922 0.16016-0.82031zm400.42 209.55c-10.355 0-18.75-8.3945-18.75-18.75s8.3945-18.75 18.75-18.75 18.75 8.3945 18.75 18.75-8.3945 18.75-18.75 18.75zm37.5 28.125c-10.355 0-18.75-8.3945-18.75-18.75s8.3945-18.75 18.75-18.75 18.75 8.3945 18.75 18.75-8.3945 18.75-18.75 18.75zm56.25 9.375c-10.355 0-18.75-8.3945-18.75-18.75s8.3945-18.75 18.75-18.75 18.75 8.3945 18.75 18.75-8.3945 18.75-18.75 18.75zm56.25-9.375c-10.355 0-18.75-8.3945-18.75-18.75s8.3945-18.75 18.75-18.75 18.75 8.3945 18.75 18.75-8.3945 18.75-18.75 18.75zm18.75-46.875c0-5.0078 1.9922-9.5273 5.1875-12.891 3.418-3.5938 8.2148-5.8594 13.562-5.8594 10.355 0 18.75 8.3945 18.75 18.75s-8.3945 18.75-18.75 18.75-18.75-8.3945-18.75-18.75zm192.54-543.75c4.1602 0 7.6562 3.25 7.9531 7.4023l2.8164 39.355c0.97656 13.629 9.2891 25.648 21.695 31.371l34.418 15.883c13.227 6.1016 21.781 19.461 21.789 34.027l0.039062 59.461h-94.488l-0.49219-11.297c-0.52344-12.078-2.4336-24.109-5.6719-35.758l-3.6602-13.164c-4.6719-16.809-5.6836-34.074-3.0117-51.316l10.734-69.211c0.60547-3.9141 3.9219-6.7539 7.8789-6.7539z"/>
</symbol><symbol id="d" viewBox="0 0 80 100"><path fill-rule="evenodd" clip-rule="evenodd" d="M6.58269 20.47C5.63402 20.1193 4.64819 19.8434 3.63225 19.6493C3.55766 19.6351 3.48291 19.6213 3.40799 19.6079C2.72924 19.4868 2.72924 18.5132 3.40799 18.3921C3.48291 18.3787 3.55766 18.3649 3.63225 18.3507C4.64819 18.1566 5.63402 17.8807 6.58269 17.53C7.15042 17.3201 7.70485 17.0835 8.24445 16.8215C11.9813 15.0076 15.0076 11.9813 16.8216 8.24444C17.0835 7.70484 17.3202 7.15042 17.53 6.58268C17.8807 5.63401 18.1566 4.64818 18.3507 3.63224C18.3649 3.55765 18.3787 3.4829 18.3921 3.40798C18.5132 2.72923 19.4868 2.72923 19.6079 3.40798C19.6213 3.4829 19.6351 3.55765 19.6493 3.63224C19.8434 4.64818 20.1193 5.63401 20.47 6.58268C20.6799 7.15041 20.9165 7.70484 21.1785 8.24444C22.9924 11.9813 26.0187 15.0076 29.7556 16.8215C30.2952 17.0835 30.8496 17.3201 31.4173 17.53C32.366 17.8807 33.3518 18.1566 34.3678 18.3507C34.4424 18.3649 34.5171 18.3787 34.592 18.3921C35.2708 18.5132 35.2708 19.4868 34.592 19.6079C34.5171 19.6213 34.4424 19.6351 34.3678 19.6493C33.3518 19.8434 32.366 20.1193 31.4173 20.47C30.8496 20.6799 30.2952 20.9165 29.7556 21.1785C26.0187 22.9924 22.9924 26.0187 21.1785 29.7556C20.9165 30.2952 20.6799 30.8496 20.47 31.4173C20.1193 32.366 19.8434 33.3518 19.6493 34.3678C19.6351 34.4423 19.6213 34.5171 19.6079 34.592C19.4868 35.2708 18.5132 35.2708 18.3921 34.592C18.3787 34.5171 18.3649 34.4423 18.3507 34.3678C18.1566 33.3518 17.8807 32.366 17.53 31.4173C17.3202 30.8496 17.0835 30.2952 16.8216 29.7556C15.0076 26.0187 11.9813 22.9924 8.24445 21.1785C7.70485 20.9165 7.15043 20.6799 6.58269 20.47ZM29.2633 44.5889C28.5998 44.4101 27.9271 44.2532 27.2459 44.119C27.1394 44.0981 27.0328 44.0777 26.926 44.0578L26.8936 44.0518L26.8498 44.0438C26.7824 44.0315 26.7084 44.0183 26.5604 43.9918L26.5087 43.9826C25.4232 43.7772 25.4232 42.2228 26.5087 42.0174L26.5604 42.0082C26.7084 41.9817 26.7824 41.9685 26.8498 41.9562L26.8936 41.9482L26.926 41.9422C27.0328 41.9223 27.1394 41.9019 27.2458 41.881C27.927 41.7468 28.5998 41.5899 29.2633 41.4111C29.83 41.2584 30.39 41.0896 30.9428 40.9054C39.8864 37.9241 46.9241 30.8864 49.9054 21.9428C50.0896 21.39 50.2584 20.83 50.4111 20.2632C50.5899 19.5998 50.7468 18.927 50.881 18.2458C50.9019 18.1394 50.9223 18.0328 50.9422 17.926L50.9482 17.8936L50.9562 17.8498C50.9684 17.7832 50.9815 17.7101 51.0073 17.5654L51.0082 17.5604L51.0174 17.5087C51.2228 16.4232 52.7772 16.4232 52.9826 17.5087L52.9919 17.5604C53.0183 17.7084 53.0315 17.7824 53.0438 17.8498L53.0518 17.8936L53.0578 17.926C53.0777 18.0328 53.0981 18.1394 53.119 18.2458C53.2532 18.9271 53.4101 19.5998 53.5889 20.2632C53.7416 20.83 53.9104 21.39 54.0946 21.9428C57.0759 30.8864 64.1136 37.9241 73.0572 40.9054C73.61 41.0896 74.17 41.2584 74.7368 41.4111C75.4002 41.5899 76.073 41.7468 76.7542 41.881C76.8606 41.9019 76.9672 41.9223 77.074 41.9422L77.1064 41.9482L77.1502 41.9562C77.2176 41.9685 77.2916 41.9817 77.4396 42.0082L77.4913 42.0174C78.5768 42.2228 78.5768 43.7772 77.4913 43.9826L77.4396 43.9918L77.283 44.0198L77.1502 44.0438L77.1064 44.0518L77.074 44.0578C76.9672 44.0777 76.8606 44.0981 76.7542 44.119C76.073 44.2532 75.4002 44.4101 74.7368 44.5889C74.17 44.7416 73.61 44.9104 73.0572 45.0946C64.1136 48.0759 57.0759 55.1136 54.0946 64.0572C53.9104 64.61 53.7416 65.17 53.5889 65.7368C53.4101 66.4002 53.2532 67.073 53.119 67.7542C53.0981 67.8606 53.0777 67.9672 53.0578 68.074L53.0518 68.1064L53.0438 68.1502L53.0259 68.2488L52.9929 68.4339L52.9826 68.4913C52.7772 69.5768 51.2228 69.5768 51.0174 68.4913L51.0082 68.4396C50.9818 68.2919 50.9685 68.2175 50.9562 68.1502L50.9482 68.1064L50.9422 68.074C50.9223 67.9672 50.9019 67.8606 50.881 67.7542C50.7468 67.0729 50.5899 66.4002 50.4111 65.7368C50.2584 65.17 50.0896 64.61 49.9054 64.0572C46.9241 55.1136 39.8864 48.0759 30.9428 45.0946C30.39 44.9104 29.83 44.7416 29.2633 44.5889ZM14.2941 65.4101C15.435 65.628 16.5157 66.0094 17.5113 66.5291C17.9542 66.7603 18.3802 67.0188 18.7871 67.3026C19.921 68.0931 20.9069 69.0791 21.6975 70.2129C21.9812 70.6199 22.2398 71.0459 22.4709 71.4887C22.9907 72.4843 23.372 73.5651 23.5899 74.706C23.5989 74.7531 23.6077 74.8003 23.6161 74.8476C23.6926 75.2763 24.3075 75.2763 24.384 74.8476C24.3924 74.8003 24.4011 74.7531 24.4101 74.706C24.6281 73.5651 25.0094 72.4843 25.5291 71.4887C25.7603 71.0459 26.0189 70.6199 26.3026 70.2129C27.0931 69.0791 28.0791 68.0931 29.213 67.3026C29.6199 67.0188 30.0459 66.7603 30.4887 66.5291C31.4844 66.0094 32.5651 65.628 33.706 65.4101C33.7531 65.4011 33.8003 65.3924 33.8476 65.3839C34.2763 65.3075 34.2763 64.6925 33.8476 64.6161C33.8003 64.6076 33.7531 64.5989 33.706 64.5899C32.5651 64.372 31.4844 63.9906 30.4887 63.4709C30.0459 63.2397 29.6199 62.9812 29.213 62.6974C28.0791 61.9069 27.0931 60.9209 26.3026 59.7871C26.0189 59.3801 25.7603 58.9541 25.5291 58.5113C25.0094 57.5157 24.6281 56.4349 24.4101 55.294C24.4011 55.2469 24.3924 55.1997 24.384 55.1524C24.3075 54.7237 23.6926 54.7237 23.6161 55.1524C23.6077 55.1997 23.5989 55.2469 23.5899 55.294C23.372 56.4349 22.9907 57.5157 22.4709 58.5113C22.2398 58.9541 21.9812 59.3801 21.6975 59.7871C20.9069 60.9209 19.921 61.9069 18.7871 62.6974C18.3802 62.9812 17.9542 63.2397 17.5113 63.4709C16.5157 63.9906 15.435 64.372 14.2941 64.5899C14.247 64.5989 14.1998 64.6076 14.1524 64.6161C13.7238 64.6925 13.7238 65.3075 14.1524 65.3839C14.1998 65.3924 14.247 65.4011 14.2941 65.4101Z" fill="black"/><text x="0" y="95" fill="#000000" font-size="5px" font-weight="bold" font-family="&apos;Helvetica Neue&apos;, Helvetica, Arial-Unicode, Arial, Sans-serif">Created by Palash Jain</text><text x="0" y="100" fill="#000000" font-size="5px" font-weight="bold" font-family="&apos;Helvetica Neue&apos;, Helvetica, Arial-Unicode, Arial, Sans-serif">from the Noun Project</text></symbol></svg>